<?xml version="1.0" encoding="utf-8"?>
<!-- Generator: Adobe Illustrator 22.1.0, SVG Export Plug-In . SVG Version: 6.00 Build 0)  -->
<svg version="1.1" id="Layer_1" xmlns="http://www.w3.org/2000/svg" xmlns:xlink="http://www.w3.org/1999/xlink" x="0px" y="0px"
	 viewBox="0 0 720 288" style="enable-background:new 0 0 720 288;" xml:space="preserve">
<style type="text/css">
	.st0{fill:#27245E;}
	.st1{fill:#C21919;}
</style>
<g>
	<path class="st0" d="M120.2,163.2c1.9-0.8,2.1-0.9,2.2-0.9c0.5-0.2,9.7-3.5,15.8-5.1l0.7-0.2c2.6-0.7,2.6-0.7,3.4-0.9
		c0.7-0.1,2.1-0.4,6.5-1.4c9.4-2.1,18.6-2.8,24.1-3.2l0.5,0c4.1-0.3,5.5-0.3,8.8-0.3c1,0,2.1,0,3.6,0c5,0,14.6,1.6,18.7,2.2
		c1.1,0.2,1.8,0.3,2,0.3c0.5,0.1,0.7,0.1,1.7,0.3c1,0.2,3,0.6,7.1,1.5c6.6,1.3,10.4,2.2,14.8,3.2l4.7,1.1c5.1,1.2,9.9,2.3,15.1,3.6
		c3.4,0.8,6.7,1.7,9.6,2.4c2.1,0.5,3.9,1,5.5,1.4c3.7,0.9,11.7,3,11.8,3l60.2,15.3l29,7.1l14.7,3.5l25.2,5.4l20.3,4
		c0.8,0.1,20,3.3,20.8,3.4c0.2,0,1.4,0.2,3.1,0.4c4.6,0.6,13.3,1.6,15.3,1.8c2.8,0.2,9.3,0.6,14.1,0.8c0.9,0,1.8,0,2.7,0
		c2.4,0,4.5-0.1,6.4-0.2c1,0,1.9-0.1,2.9-0.1c3.1-0.1,8.9-0.4,19-1.7c8.1-1,11.6-1.7,15.6-2.6c0.8-0.2,1.6-0.3,2.5-0.5
		c4.9-1,12.3-2.9,19.9-5.1c6.3-1.9,7.7-2.4,12-3.9l1-0.3c5-1.8,7.5-2.8,13.1-5c5.6-2.2,13.2-5.9,13.3-5.9l5.6-2.8l7.7-4l5.7-3.3
		c1.4-0.6,3.8-2.7,3.5-6.4c-0.2-2.8-1.7-4.8-4.3-5.8l-0.1,0c-0.5-0.2-12.1-5.5-12.1-5.5l-8.9-4.1l-9-4.1c-0.1,0-1.5-0.7-3.1-0.6
		c-1.5,0.1-2.7,0.8-4.3,1.7c-1,0.6-3.1,1.6-5,2.6c-0.9,0.4-1.7,0.8-2.5,1.2c-2.4,1.2-6.5,3.1-18.7,8.2c-12.1,5.1-16.3,5.7-16.3,5.7
		l-0.1,0c-0.1,0-9.7,3.3-23.9,6.3c-9.4,2-18.9,3.6-28.1,4.7l-0.1,0c-3,0.4-12.9,1.2-19.2,1.5c-3,0.2-3.6,0.2-4.2,0.2
		c-0.8,0-1.6,0-6.2,0.2c-6.9,0.4-16.1,0.1-22.1-0.1c-1.4,0-2.7-0.1-3.7-0.1c-5-0.1-13.8-0.8-18.5-1.2c-4-0.3-19.5-2.1-19.6-2.1
		c-0.1,0-7.4-1-15.4-2.2c-6.5-1-15.7-2.8-20.7-3.7c-1.2-0.2-2.1-0.4-2.6-0.5c-2.9-0.5-11.6-2.3-18.6-3.9c-4.1-0.9-10-2.4-14.7-3.6
		c-3.8-0.9-6.6-1.6-7.1-1.7c-0.9-0.2-20.6-5.5-30.9-8.3l-14.9-4.2l-24.6-7.2c-0.2-0.1-20.6-6-29.7-8.5c-9.1-2.4-29.7-7.5-34.5-8.2
		c-1.6-0.2-3.2-0.5-4.7-0.8c-3.2-0.6-6.6-1.1-9.5-1.4l-0.8-0.1c-4-0.4-9.5-1-20.3-0.7c-11.1,0.3-21.6,2-27.2,2.9l-0.6,0.1
		c-5.6,0.9-18.5,3.8-29.2,7.6c-12.1,4.3-22.5,9.2-33.9,15.9c-8,4.7-16.9,11.3-25,18.4c-2,1.8-1.9,3.6-1.8,4.1l0,1.4l0,0.1
		c0,0.1,0.8,2.2,2.7,3.1c1.6,0.7,18,9.8,18.2,9.9l8.7,4.6c0.3,0.2,8.2,4.5,10.2,5.2c2.1,0.8,5.4,0.7,8.1-0.1c3-0.9,5.1-2.7,5.2-2.8
		c0.4-0.3,4.5-3.6,6.2-4.8c1.5-1.1,9.1-6.3,11.7-8.1c2.5-1.7,13.3-7.8,18.5-10.6C106.8,168.7,116.2,164.8,120.2,163.2z"/>
	<path class="st0" d="M697.9,219.8c-0.2-2.1-1.1-4.8-4.5-6.1l-0.1,0c-0.5-0.2-12.1-5.5-12.1-5.5l-8.9-4.1l-9-4.1
		c-0.2-0.1-1.7-0.8-3.2-0.7c-1.6,0.1-2.9,0.8-4.4,1.7c-1,0.6-3.1,1.6-5.1,2.6c-0.9,0.4-1.7,0.8-2.4,1.2c-2.4,1.2-6.5,3.1-18.6,8.2
		c-12,5.1-16.2,5.6-16.2,5.6l-0.2,0c-0.1,0-9.7,3.3-23.9,6.3c-9.4,2-18.8,3.6-28.1,4.7l-0.1,0c-3,0.4-12.8,1.1-19.2,1.5
		c-3,0.2-3.5,0.2-4.2,0.2c-0.8,0-1.6,0-6.2,0.2c-6.9,0.4-16.1,0.1-22.1-0.1c-1.4,0-2.7-0.1-3.7-0.1c-5-0.1-13.8-0.8-18.5-1.2
		c-4-0.3-19.5-2.1-19.6-2.1c-0.1,0-7.4-1-15.4-2.2c-6.4-1-15.7-2.8-20.6-3.7c-1.2-0.2-2.1-0.4-2.7-0.5c-2.9-0.5-11.6-2.3-18.6-3.9
		c-4-0.9-9.9-2.4-14.7-3.5c-4.3-1-6.7-1.6-7.2-1.7c-0.9-0.2-18.9-5-30.8-8.3l-14.9-4.2l-24.6-7.2c-0.2-0.1-20.6-6-29.7-8.5
		c-9.1-2.4-29.7-7.5-34.5-8.3c-1.6-0.2-3.1-0.5-4.7-0.8c-3.2-0.6-6.6-1.1-9.5-1.4l-0.8-0.1c-4-0.4-9.5-1-20.4-0.7
		c-11.1,0.3-21.6,2-27.3,2.9l-0.6,0.1c-5.6,0.9-18.6,3.8-29.3,7.7c-12.1,4.4-22.6,9.3-33.9,15.9c-8.1,4.7-17,11.3-25.1,18.5
		c-2,1.8-2,3.8-1.9,4.4l0,1.4l0.1,0.2c0,0.1,0.9,2.3,2.9,3.3c1.3,0.6,12.4,6.7,18.2,9.9l8.7,4.6c0.3,0.2,8.3,4.5,10.2,5.2
		c2.2,0.8,5.5,0.8,8.3-0.1c3.1-0.9,5.2-2.8,5.3-2.9c0.3-0.3,4.6-3.6,6.2-4.8c1.5-1.1,9.1-6.3,11.7-8.1c2.5-1.6,13.2-7.8,18.5-10.6
		c3.9-2,13.3-5.9,17.3-7.5c2-0.8,2.1-0.9,2.2-0.9c0.6-0.2,9.7-3.5,15.7-5.1l0.7-0.2c2.6-0.7,2.6-0.7,3.4-0.9
		c0.7-0.1,2.1-0.4,6.5-1.4c9.3-2.1,18.5-2.8,24-3.2l0.6,0c4.1-0.3,5.5-0.3,8.8-0.3c1,0,2.1,0,3.6,0c5,0,14.6,1.6,18.7,2.2
		c1.1,0.2,1.8,0.3,2,0.3c0.5,0.1,0.7,0.1,1.7,0.3c1,0.2,3,0.6,7.1,1.5c6.6,1.3,10.4,2.2,14.8,3.2l4.7,1.1c5.1,1.2,9.9,2.3,15.1,3.6
		c3.3,0.8,6.6,1.6,9.5,2.4c2.1,0.5,4,1,5.6,1.4c3.7,0.9,11.7,3,11.8,3l60.2,15.3l29,7.1l14.7,3.5l25.2,5.4l20.3,4
		c2,0.3,20,3.3,20.9,3.4c0.2,0,1.3,0.2,2.9,0.4c4.7,0.6,13.4,1.6,15.5,1.8c2.9,0.2,9.5,0.6,14.1,0.8c0.9,0,1.8,0,2.7,0
		c2.4,0,4.5-0.1,6.4-0.2c1,0,1.9-0.1,2.9-0.1c3.1-0.1,9-0.4,19-1.7c8.1-1,11.6-1.7,15.7-2.6c0.8-0.2,1.6-0.3,2.5-0.5
		c4.9-1,12.4-2.9,19.9-5.2c6.3-1.9,7.8-2.4,12-3.9l1-0.3c5-1.8,7.6-2.8,13.1-5c5.6-2.2,13.3-5.9,13.3-5.9l5.6-2.8l7.7-4l5.8-3.3
		C694.7,226.3,698.3,224.4,697.9,219.8z"/>
</g>
<g>
	<path class="st1" d="M67.2,55.4l-1.4,27.7H70l0-0.5c0.4-5,1.6-9.1,3.6-12c2-2.9,4.4-4.9,7.2-6c2.2-0.8,5.9-1.1,11.2-1.1h13.2v86.6
		c0,6.3-0.6,10.3-1.8,12c-1.9,2.8-5.2,4.2-9.9,4.2h-4.5v4.1h49.4v-4.1h-4.5c-4.3,0-7.4-1.1-9.5-3.4c-1.4-1.6-2.1-5.9-2.1-12.8V63.5
		H138c4.6,0,8.4,0.8,11.2,2.3c2.8,1.5,5.1,3.8,6.7,7c1,2,1.9,5.3,2.5,9.9l0.1,0.4h4.2l-1.3-27.7H67.2z"/>
	<path class="st1" d="M248.4,59.5h4.8c4.1,0,7.3,1.2,9.4,3.5c1.5,1.7,2.2,6.1,2.2,13v46.2c0,12-1.1,20.6-3.2,25.6
		c-2.1,4.9-6.1,9.1-11.9,12.2c-5.8,3.2-12.4,4.8-19.8,4.8c-5.7,0-10.6-1-14.5-3.1c-3.9-2-7-4.6-9-7.7c-2.1-3.1-3.5-7.5-4.3-13.2
		c-0.8-5.7-1.2-10.8-1.2-15.2V76.1c0-6.3,0.7-10.4,2-12.3c1.9-2.8,5.2-4.2,9.7-4.2h4.9v-4.1h-50.3v4.1h4.8c4.1,0,7.2,1,9,3.1
		c1.8,2.1,2.8,6.6,2.8,13.5v44.6c0,13.7,0.9,23.2,2.7,28.3c2.7,7.4,7.4,13.3,13.9,17.7c6.5,4.4,16.1,6.6,28.6,6.6
		c11.5,0,20.7-2.3,27.4-6.9c6.7-4.6,11.3-10.1,13.6-16.5c2.3-6.3,3.4-15.3,3.4-26.8V76.8c0-6.2,0.6-10.2,1.7-11.8
		c2.3-3.6,5.6-5.4,9.9-5.4h4.8v-4.1h-41.4V59.5z"/>
	<path class="st1" d="M365.6,116.6c-3.9-3.1-11.3-7.5-21.9-13.2c-12.9-6.9-21.2-12.6-24.7-16.7c-2.3-2.8-3.5-5.8-3.5-9.2
		c0-4.4,1.9-8.3,5.6-11.8c3.7-3.5,8.5-5.2,14.1-5.2c5,0,10,1.3,14.7,3.9c4.7,2.6,8.4,6.1,11,10.5c2.6,4.4,4.4,10.4,5.4,17.9l0.1,0.4
		h4V52.8h-4l-0.1,0.4c-0.5,2.5-1.2,4.2-2.1,5c-0.8,0.8-1.9,1.2-3.2,1.2c-1.2,0-3.4-0.7-6.4-2.1c-6.8-3-13.4-4.5-19.5-4.5
		c-9.8,0-18,3-24.3,9c-6.4,6-9.6,13.2-9.6,21.5c0,4.8,1.1,9.2,3.3,13.2c2.2,4,5.4,7.6,9.5,10.9c4.1,3.3,11.1,7.7,20.9,13.1
		c9.7,5.4,15.7,9,17.9,10.7c3.2,2.4,5.6,5,7.1,7.8c1.5,2.8,2.3,5.6,2.3,8.3c0,4.9-2,9.2-5.9,12.8c-4,3.6-9.4,5.4-16.3,5.4
		c-5.9,0-11.5-1.3-16.5-4c-5-2.6-8.7-6-11.1-10c-2.4-4-4.4-10.1-5.8-18.2l-0.1-0.4h-4v40.1h4l0.1-0.4c0.4-2.5,0.9-4.2,1.7-4.9
		c0.7-0.7,1.7-1.1,3-1.1c1.4,0,4.8,0.9,10.2,2.6c5.5,1.8,9.1,2.8,10.9,3.1c2.9,0.5,6.1,0.8,9.4,0.8c10.6,0,19.4-3.2,26.2-9.5
		c6.8-6.3,10.2-14,10.2-22.7c0-4.6-1.1-9.1-3.2-13.3C372.6,123.4,369.5,119.7,365.6,116.6z"/>
	<path class="st1" d="M449.5,52.8c-15,0-28,5.1-38.8,15c-12.4,11.5-18.7,26.5-18.7,44.7c0,17.8,5.4,32.5,16.2,43.7
		c10.7,11.2,24.2,16.9,39.9,16.9c15.6,0,29.1-5.8,40.1-17.3c11-11.5,16.5-26.1,16.5-43.5c0-16.9-5.5-31.2-16.4-42.4
		C477.5,58.5,464.4,52.8,449.5,52.8z M447.9,59.9c10.7,0,19.1,3.8,25.2,11.3c7.6,9.5,11.4,24,11.4,43.3c0,17.8-3.5,31-10.4,39.2
		c-6.8,8.2-15.6,12.4-26.2,12.4c-9.8,0-17.9-3.8-23.8-11.2c-7.9-9.9-11.8-24.3-11.8-42.7c0-18,3.8-31.8,11.4-41.1
		C429.8,63.7,437.9,59.9,447.9,59.9z"/>
	<path class="st1" d="M593.5,55.4v4.1h4.5c4.3,0,7.5,1.1,9.5,3.4c1.5,1.6,2.2,5.9,2.2,12.8V140l-68.8-84.4l-0.2-0.2h-31.7v4.1h0.5
		c3.2,0,5.7,0.2,7.2,0.7c3.2,1,5.7,2.2,7.4,3.4c1.6,1.2,4.1,3.7,7.3,7.4v79.1c0,6.3-0.6,10.3-1.8,12c-1.9,2.8-5.3,4.2-9.9,4.2h-4.5
		v4.1h40.7v-4.1h-4.5c-4.3,0-7.4-1.1-9.5-3.4c-1.4-1.6-2.1-5.9-2.1-12.8V81.4l74.3,90.8l0.1,0.2h3.8V75.7c0-6.3,0.6-10.3,1.8-12
		c1.9-2.8,5.2-4.2,9.8-4.2h4.5v-4.1H593.5z"/>
</g>
</svg>
